<svg xmlns="http://www.w3.org/2000/svg" data-name="Layer 1" viewBox="0 0 100 100" x="0px" y="0px" fill="#b3b3b3">
    <path d="M42,48H34a6,6,0,0,1-6-6V34a6,6,0,0,1,6-6h8a6,6,0,0,1,6,6v8A6,6,0,0,1,42,48ZM34,32a2,2,0,0,0-2,2v8a2,2,0,0,0,2,2h8a2,2,0,0,0,2-2V34a2,2,0,0,0-2-2H34Z" />
    <path d="M42,72H34a6,6,0,0,1-6-6V58a6,6,0,0,1,6-6h8a6,6,0,0,1,6,6v8A6,6,0,0,1,42,72ZM34,56a2,2,0,0,0-2,2v8a2,2,0,0,0,2,2h8a2,2,0,0,0,2-2V58a2,2,0,0,0-2-2H34Z" />
    <path d="M66,48H58a6,6,0,0,1-6-6V34a6,6,0,0,1,6-6h8a6,6,0,0,1,6,6v8A6,6,0,0,1,66,48ZM58,32a2,2,0,0,0-2,2v8a2,2,0,0,0,2,2h8a2,2,0,0,0,2-2V34a2,2,0,0,0-2-2H58Z" />
    <path d="M62,72A10,10,0,1,1,72,62,10,10,0,0,1,62,72Zm0-16a6,6,0,1,0,6,6A6,6,0,0,0,62,56Z" />
</svg>